# xmcd
#
# Track frame offsets: 
#        150
#        14627
#        28887
#        42347
#        56665
#        71890
#        86565
#        100397
#        114515
#        128267
#        141872
#        155502
#        169642
#        181612
#        195007
#        209410
#        222155
#        234527
#        247202
#        261015
#        275635
#        289817
#
# Disc length: 4057 seconds
#
# Revision: 2
# Processed by: cddbd v1.5.2PL0 Copyright (c) Steve Scherf et al.
# Submitted via: ExactAudioCopy v1.3
#
DISCID=450fd716
DTITLE=John Lee Hooker - Boogie Chillen 1948-1949
DYEAR=2000
DGENRE=Blues
TTITLE0=Sally Mae
TTITLE1=Boogie Chillen
TTITLE2=She Was In Chicago
TTITLE3=Who's Been Jiving You? (as Texas Slim)
TTITLE4=Shady Grove Blues (as Birmingham Sam)
TTITLE5=So the Boogie (as The Boogie Man)
TTITLE6=Miss Lorraine (as John Lee Booker)
TTITLE7=Talkin' Boogie (as John Lee Booker)
TTITLE8=Hobo Blues
TTITLE9=Drifting From Door to Door
TTITLE10=Crawling Kingsnake
TTITLE11=Alberta
TTITLE12=Howlin' Wolf
TTITLE13=Momma Poppa Boogie
TTITLE14=Whistlin' and Moanin' Blues
TTITLE15=Graveyard Blues
TTITLE16=Burning Hell
TTITLE17=Sailing Blues
TTITLE18=Black Cat Blues
TTITLE19=Don't Go Baby (as Texas Slim)
TTITLE20=The Numbers (as Texas Slim)
TTITLE21=Forgive Me
EXTD=ID3G: 0
EXTT0=
EXTT1=
EXTT2=
EXTT3=
EXTT4=
EXTT5=
EXTT6=
EXTT7=
EXTT8=
EXTT9=
EXTT10=
EXTT11=
EXTT12=
EXTT13=
EXTT14=
EXTT15=
EXTT16=
EXTT17=
EXTT18=
EXTT19=
EXTT20=
EXTT21=
PLAYORDER=
